<svg xmlns="http://www.w3.org/2000/svg" xmlns:xlink="http://www.w3.org/1999/xlink" version="1.1" x="0px" y="0px" viewBox="0 0 100 125" enable-background="new 0 0 100 100" xml:space="preserve"><path d="M78.371,37.033L50,18.36L21.629,37.033l0.717,23.248l27.652,21.427l27.654-21.427L78.371,37.033z M48.999,78.404  L24.347,59.301V39.139l24.652,19.104V78.404z M25.066,37.166L50,20.755l24.936,16.411L49.999,56.487L25.066,37.166z M75.653,59.301  L50.999,78.404V58.242L75.653,39.14V59.301z"/><polygon points="4.06,4.584 24.349,4.584 24.349,2.584 2.06,2.584 2.06,24.873 4.06,24.873 "/><polygon points="4.06,75.127 2.06,75.127 2.06,97.416 24.349,97.416 24.349,95.416 4.06,95.416 "/><polygon points="95.94,95.416 75.651,95.416 75.651,97.416 97.94,97.416 97.94,75.127 95.94,75.127 "/><polygon points="75.651,2.584 75.651,4.584 95.94,4.584 95.94,24.872 97.94,24.872 97.94,2.584 "/><text x="0" y="115" fill="#000000" font-size="5px" font-weight="bold" font-family="'Helvetica Neue', Helvetica, Arial-Unicode, Arial, Sans-serif">Created by Srinivas Agra</text><text x="0" y="120" fill="#000000" font-size="5px" font-weight="bold" font-family="'Helvetica Neue', Helvetica, Arial-Unicode, Arial, Sans-serif">from the Noun Project</text></svg>